HIERARCHY
ROOT Hips
{
	OFFSET 0.000000 100.481300 0.000000
	CHANNELS 6 Xposition Yposition Zposition Xrotation Yrotation Zrotation
	JOINT Spine
	{
		OFFSET -0.279200 12.230698 -2.892100
		CHANNELS 3 Xrotation Yrotation Zrotation
		JOINT Spine1
		{
			OFFSET -0.325700 14.269203 -3.374200
			CHANNELS 3 Xrotation Yrotation Zrotation
			JOINT Spine2
			{
				OFFSET -0.372300 16.307602 -0.352600
				CHANNELS 3 Xrotation Yrotation Zrotation
				JOINT Neck
				{
					OFFSET -0.418800 17.814194 8.416900
					CHANNELS 3 Xrotation Yrotation Zrotation
					JOINT Head
					{
						OFFSET 0.000000 7.031097 3.806800
						CHANNELS 3 Xrotation Yrotation Zrotation
						JOINT HeadTop_End
						{
							OFFSET 0.000000 24.646606 12.978600
							CHANNELS 3 Xrotation Yrotation Zrotation
							End Site
							{
								OFFSET 0.000000 27.854965 0.000000
							}
						}
					}
				}
				JOINT LeftShoulder
				{
					OFFSET 16.952999 14.495407 -7.737500
					CHANNELS 3 Xrotation Yrotation Zrotation
					JOINT LeftArm
					{
						OFFSET 9.308998 -2.777710 0.208600
						CHANNELS 3 Xrotation Yrotation Zrotation
						JOINT LeftForeArm
						{
							OFFSET 29.972298 0.000000 0.000000
							CHANNELS 3 Xrotation Yrotation Zrotation
							JOINT LeftHand
							{
								OFFSET 26.026505 0.000000 0.000000
								CHANNELS 3 Xrotation Yrotation Zrotation
								JOINT LeftHandThumb1
								{
									OFFSET 12.240501 -7.147949 9.207150
									CHANNELS 3 Xrotation Yrotation Zrotation
									JOINT LeftHandThumb2
									{
										OFFSET 4.138618 -2.389435 2.389433
										CHANNELS 3 Xrotation Yrotation Zrotation
										JOINT LeftHandThumb3
										{
											OFFSET 2.726913 -1.574387 1.574386
											CHANNELS 3 Xrotation Yrotation Zrotation
											JOINT LeftHandThumb4
											{
												OFFSET 3.941010 -2.275345 2.275342
												CHANNELS 3 Xrotation Yrotation Zrotation
												End Site
												{
													OFFSET -0.005798 5.087799 0.009903
												}
											}
										}
									}
								}
								JOINT LeftHandIndex1
								{
									OFFSET 24.424698 -1.985611 5.953459
									CHANNELS 3 Xrotation Yrotation Zrotation
									JOINT LeftHandIndex2
									{
										OFFSET 6.426697 0.000000 0.000000
										CHANNELS 3 Xrotation Yrotation Zrotation
										JOINT LeftHandIndex3
										{
											OFFSET 5.337898 0.000000 0.000000
											CHANNELS 3 Xrotation Yrotation Zrotation
											JOINT LeftHandIndex4
											{
												OFFSET 4.409401 0.000000 0.000000
												CHANNELS 3 Xrotation Yrotation Zrotation
												End Site
												{
													OFFSET 0.000000 4.409363 0.014373
												}
											}
										}
									}
								}
								JOINT LeftHandMiddle1
								{
									OFFSET 23.810104 0.000000 0.000000
									CHANNELS 3 Xrotation Yrotation Zrotation
									JOINT LeftHandMiddle2
									{
										OFFSET 7.176498 0.000000 0.000000
										CHANNELS 3 Xrotation Yrotation Zrotation
										JOINT LeftHandMiddle3
										{
											OFFSET 6.774902 0.000000 0.000000
											CHANNELS 3 Xrotation Yrotation Zrotation
											JOINT LeftHandMiddle4
											{
												OFFSET 5.403328 0.000000 0.000000
												CHANNELS 3 Xrotation Yrotation Zrotation
												End Site
												{
													OFFSET -0.027702 5.403244 0.017414
												}
											}
										}
									}
								}
								JOINT LeftHandRing1
								{
									OFFSET 22.908401 -0.839279 -6.020567
									CHANNELS 3 Xrotation Yrotation Zrotation
									JOINT LeftHandRing2
									{
										OFFSET 6.337502 0.000000 0.000000
										CHANNELS 3 Xrotation Yrotation Zrotation
										JOINT LeftHandRing3
										{
											OFFSET 5.779297 0.000000 0.000000
											CHANNELS 3 Xrotation Yrotation Zrotation
											JOINT LeftHandRing4
											{
												OFFSET 4.965698 0.000000 0.000000
												CHANNELS 3 Xrotation Yrotation Zrotation
												End Site
												{
													OFFSET 0.000000 4.965668 0.016186
												}
											}
										}
									}
								}
								JOINT LeftHandPinky1
								{
									OFFSET 20.037003 -1.530319 -10.950146
									CHANNELS 3 Xrotation Yrotation Zrotation
									JOINT LeftHandPinky2
									{
										OFFSET 5.254700 0.000000 0.000000
										CHANNELS 3 Xrotation Yrotation Zrotation
										JOINT LeftHandPinky3
										{
											OFFSET 4.810204 0.000000 0.000000
											CHANNELS 3 Xrotation Yrotation Zrotation
											JOINT LeftHandPinky4
											{
												OFFSET 3.647202 0.000000 0.000000
												CHANNELS 3 Xrotation Yrotation Zrotation
												End Site
												{
													OFFSET 0.000000 3.647186 0.011889
												}
											}
										}
									}
								}
							}
						}
					}
				}
				JOINT RightShoulder
				{
					OFFSET -15.141001 14.495407 -7.737500
					CHANNELS 3 Xrotation Yrotation Zrotation
					JOINT RightArm
					{
						OFFSET -9.308998 -2.777710 0.208500
						CHANNELS 3 Xrotation Yrotation Zrotation
						JOINT RightForeArm
						{
							OFFSET -29.972300 0.000000 0.000000
							CHANNELS 3 Xrotation Yrotation Zrotation
							JOINT RightHand
							{
								OFFSET -26.026505 0.000000 0.000000
								CHANNELS 3 Xrotation Yrotation Zrotation
								JOINT RightHandThumb1
								{
									OFFSET -12.240601 -7.148026 9.207092
									CHANNELS 3 Xrotation Yrotation Zrotation
									JOINT RightHandThumb2
									{
										OFFSET -4.138618 -2.389435 2.389433
										CHANNELS 3 Xrotation Yrotation Zrotation
										JOINT RightHandThumb3
										{
											OFFSET -2.726974 -1.574417 1.574421
											CHANNELS 3 Xrotation Yrotation Zrotation
											JOINT RightHandThumb4
											{
												OFFSET -3.941010 -2.275345 2.275343
												CHANNELS 3 Xrotation Yrotation Zrotation
												End Site
												{
													OFFSET 0.005814 5.087799 0.009927
												}
											}
										}
									}
								}
								JOINT RightHandIndex1
								{
									OFFSET -24.424698 -1.985657 5.953444
									CHANNELS 3 Xrotation Yrotation Zrotation
									JOINT RightHandIndex2
									{
										OFFSET -6.426697 0.000000 0.000000
										CHANNELS 3 Xrotation Yrotation Zrotation
										JOINT RightHandIndex3
										{
											OFFSET -5.337898 0.000000 0.000000
											CHANNELS 3 Xrotation Yrotation Zrotation
											JOINT RightHandIndex4
											{
												OFFSET -4.409401 0.000000 0.000000
												CHANNELS 3 Xrotation Yrotation Zrotation
												End Site
												{
													OFFSET 0.000000 4.409363 0.014408
												}
											}
										}
									}
								}
								JOINT RightHandMiddle1
								{
									OFFSET -23.810097 0.000000 0.000000
									CHANNELS 3 Xrotation Yrotation Zrotation
									JOINT RightHandMiddle2
									{
										OFFSET -7.176498 0.000000 0.000000
										CHANNELS 3 Xrotation Yrotation Zrotation
										JOINT RightHandMiddle3
										{
											OFFSET -6.774902 0.000000 0.000000
											CHANNELS 3 Xrotation Yrotation Zrotation
											JOINT RightHandMiddle4
											{
												OFFSET -5.403328 0.000000 0.000000
												CHANNELS 3 Xrotation Yrotation Zrotation
												End Site
												{
													OFFSET 0.027702 5.403244 0.017457
												}
											}
										}
									}
								}
								JOINT RightHandRing1
								{
									OFFSET -22.908302 -0.839325 -6.020576
									CHANNELS 3 Xrotation Yrotation Zrotation
									JOINT RightHandRing2
									{
										OFFSET -6.337502 0.000000 0.000000
										CHANNELS 3 Xrotation Yrotation Zrotation
										JOINT RightHandRing3
										{
											OFFSET -5.779297 0.000000 0.000000
											CHANNELS 3 Xrotation Yrotation Zrotation
											JOINT RightHandRing4
											{
												OFFSET -4.965698 0.000000 0.000000
												CHANNELS 3 Xrotation Yrotation Zrotation
												End Site
												{
													OFFSET 0.000000 4.965668 0.016226
												}
											}
										}
									}
								}
								JOINT RightHandPinky1
								{
									OFFSET -20.037003 -1.530334 -10.950259
									CHANNELS 3 Xrotation Yrotation Zrotation
									JOINT RightHandPinky2
									{
										OFFSET -5.254700 0.000000 0.000000
										CHANNELS 3 Xrotation Yrotation Zrotation
										JOINT RightHandPinky3
										{
											OFFSET -4.810204 0.000000 0.000000
											CHANNELS 3 Xrotation Yrotation Zrotation
											JOINT RightHandPinky4
											{
												OFFSET -3.647202 0.000000 0.000000
												CHANNELS 3 Xrotation Yrotation Zrotation
												End Site
												{
													OFFSET 0.000000 3.647186 0.011917
												}
											}
										}
									}
								}
							}
						}
					}
				}
			}
		}
	}
	JOINT LeftUpLeg
	{
		OFFSET 15.427100 -6.655098 0.678600
		CHANNELS 3 Xrotation Yrotation Zrotation
		JOINT LeftLeg
		{
			OFFSET 4.081073 -39.591068 13.024000
			CHANNELS 3 Xrotation Yrotation Zrotation
			JOINT LeftFoot
			{
				OFFSET -4.081074 -37.707932 -15.979700
				CHANNELS 3 Xrotation Yrotation Zrotation
				JOINT LeftToeBase
				{
					OFFSET 5.346399 -15.068900 20.645000
					CHANNELS 3 Xrotation Yrotation Zrotation
					JOINT LeftToe_End
					{
						OFFSET 2.754700 0.931300 11.300900
						CHANNELS 3 Xrotation Yrotation Zrotation
						End Site
						{
							OFFSET 0.000000 11.669021 0.000000
						}
					}
				}
			}
		}
	}
	JOINT RightUpLeg
	{
		OFFSET -15.569500 -6.655098 0.678600
		CHANNELS 3 Xrotation Yrotation Zrotation
		JOINT RightLeg
		{
			OFFSET -4.081825 -39.591045 13.023800
			CHANNELS 3 Xrotation Yrotation Zrotation
			JOINT RightFoot
			{
				OFFSET 4.081824 -37.707954 -15.979600
				CHANNELS 3 Xrotation Yrotation Zrotation
				JOINT RightToeBase
				{
					OFFSET -5.346400 -15.068900 20.645000
					CHANNELS 3 Xrotation Yrotation Zrotation
					JOINT RightToe_End
					{
						OFFSET -2.754700 0.931300 11.300900
						CHANNELS 3 Xrotation Yrotation Zrotation
						End Site
						{
							OFFSET 0.000000 11.669021 0.000000
						}
					}
				}
			}
		}
	}
}
MOTION
Frames: 4
Frame Time: 0.033333
0.259817 84.443382 154.980591 -4.606344 2.590526 -7.264604 16.077990 -0.449216 8.241909 -4.792197 -1.208838 -0.389005 -4.817481 -1.062873 -0.165785 -1.658293 -1.188226 3.620947 -9.017078 0.473098 -1.706778 0.000000 0.000000 0.000000 2.404191 2.259199 -1.797661 -9.313545 -12.475440 -72.667141 4.249862 -17.117593 -7.082025 -0.922446 -0.152774 11.371084 -4.983078 13.405921 11.311703 3.514997 8.487680 1.850368 3.521432 8.483419 1.853336 -0.000002 0.000001 0.000004 0.071015 -10.524791 -24.630002 -0.034942 0.056491 -21.749045 0.009434 0.023951 -21.631069 0.000001 0.000001 -0.000001 -1.007452 -8.606867 -28.758955 0.000501 -0.002821 -24.437524 0.002609 -0.002011 -24.315646 -0.000001 -0.000003 0.000000 -2.334928 -8.603485 -34.039351 0.001351 0.009406 -27.947514 -0.017652 -0.004336 -27.792473 0.000001 -0.000000 -0.000002 -3.880251 -8.620978 -38.946685 -0.006941 0.005667 -31.206287 -0.001880 0.007466 -31.017487 -0.000002 -0.000002 -0.000001 3.598947 -0.773912 6.415207 1.775091 22.803507 67.993550 8.751887 17.306574 7.020256 -19.350870 -0.513921 -15.267810 -0.779773 -20.556633 -5.076188 4.540859 -11.070256 -2.314774 -0.011290 0.014575 0.006957 0.000000 -0.000001 0.000001 1.069503 0.704792 27.632574 -0.033751 -0.057475 22.909173 0.010500 -0.021505 22.726164 0.000002 0.000001 0.000001 -0.266986 1.532360 28.565526 0.008552 -0.004335 23.520024 0.001674 -0.012591 23.341275 0.000000 -0.000000 0.000002 -1.352331 3.157933 31.760841 0.000547 -0.012027 25.665964 0.002738 -0.010514 25.455084 -0.000002 -0.000000 -0.000001 -2.779505 5.071490 35.039851 0.003472 -0.015635 27.838342 0.011617 -0.014964 27.609387 -0.000000 -0.000000 0.000001 -10.131591 4.385048 11.854877 65.522469 3.827762 -0.207470 20.476473 -0.241580 -2.981530 -44.832549 6.367453 -7.926650 0.000000 -0.000002 0.000000 -26.162437 -9.710965 12.763387 37.409663 2.649703 -0.245319 -3.636700 1.732631 -11.171316 1.379579 0.047504 1.482286 0.000000 0.000000 0.000000 
0.467405 86.092506 160.779953 -3.877952 2.058395 -6.547728 15.670110 0.167274 7.104684 -4.807698 -0.690223 -0.386628 -4.819262 -0.580391 -0.251147 -0.632275 -1.317647 3.340777 -8.613138 0.167999 -1.526552 0.000001 -0.000000 0.000000 2.395792 2.303041 -1.678787 -8.072338 -10.387007 -73.408250 6.824428 -13.775533 -7.740598 -0.182216 0.928222 11.647726 -4.983102 13.405894 11.311690 3.514992 8.487685 1.850365 3.521419 8.483425 1.853324 -0.000001 0.000000 -0.000002 0.113765 -8.206658 -26.736004 -0.033543 0.057659 -23.160253 0.014692 0.023619 -23.018272 0.000004 -0.000001 -0.000003 -0.974843 -6.904196 -30.140761 0.005467 0.000876 -25.383959 0.007340 0.001684 -25.241705 -0.000003 -0.000002 -0.000001 -2.236798 -7.228782 -35.043228 0.001500 0.014154 -28.651359 -0.010856 -0.003051 -28.474350 -0.000000 0.000001 0.000000 -3.742430 -7.620477 -39.631240 -0.005501 0.007685 -31.698973 -0.000017 0.009137 -31.488856 0.000003 -0.000000 0.000001 3.526697 -0.150965 5.539870 0.190344 22.868044 68.928596 8.194814 18.479280 6.848044 -21.638253 -0.341872 -15.289102 -0.779405 -20.558234 -5.076499 4.540510 -11.069535 -2.314586 -0.010872 0.012985 0.006761 0.000001 -0.000000 0.000000 0.434400 3.595799 23.556786 -0.036465 -0.055204 20.150108 0.000051 -0.021986 19.999806 -0.000000 -0.000001 -0.000003 -0.569893 3.810889 26.126035 -0.000170 0.002564 21.858098 -0.006561 -0.005797 21.711723 0.000003 -0.000002 -0.000002 -1.683700 5.082883 30.408497 0.000694 -0.004932 24.732337 -0.004000 -0.007976 24.556004 -0.000002 -0.000000 -0.000000 -3.186615 6.526836 34.814004 0.002995 -0.014895 27.660767 0.011075 -0.014410 27.462254 0.000000 0.000000 -0.000001 -16.622317 3.090158 10.904973 65.283057 4.581788 -0.174381 14.688744 -0.157079 -3.643748 -43.268842 0.942765 -3.981736 0.000001 0.000001 0.000000 -21.387274 -8.278795 12.500079 36.281859 3.195369 -0.052412 -7.924908 2.007744 -11.190713 1.144354 -0.085573 1.196181 0.000000 -0.000000 0.000000 
0.760466 87.876541 166.710373 -3.190856 1.091779 -5.480241 15.018620 0.885938 5.935970 -4.555115 0.108570 -0.654703 -4.552611 0.125157 -0.644185 -0.412351 -1.480185 2.974757 -7.005763 -0.189495 -1.311258 0.000000 0.000000 0.000000 2.384116 2.445028 -1.516952 -5.809678 -9.254677 -73.611722 9.430020 -12.036619 -8.299573 -0.286985 1.447258 11.634081 -4.983133 13.405900 11.311674 3.515017 8.487657 1.850318 3.521422 8.483442 1.853308 0.000001 -0.000001 -0.000003 0.149390 -8.399714 -25.907176 -0.034135 0.057207 -22.604187 0.012639 0.023766 -22.471047 -0.000003 0.000000 0.000001 -0.956555 -7.078191 -29.808247 0.004240 0.000025 -25.157999 0.006188 0.000795 -25.020638 -0.000000 -0.000001 -0.000001 -2.267705 -7.370042 -35.072345 0.001495 0.014256 -28.668257 -0.010672 -0.002993 -28.491767 -0.000002 -0.000001 -0.000002 -3.828754 -7.698305 -40.005186 -0.004772 0.008694 -31.947455 0.000969 0.009981 -31.734637 0.000000 -0.000001 0.000000 3.491581 0.065743 4.950386 -0.893350 23.596581 69.881243 7.478605 19.296034 5.950264 -20.018477 0.125574 -13.921391 -0.771373 -20.594619 -5.083316 4.541209 -11.070996 -2.314877 -0.064134 0.157980 0.036616 -0.000001 -0.000002 -0.000000 0.505737 3.295521 24.461872 -0.035872 -0.055732 20.764909 0.002362 -0.021924 20.604439 0.000002 -0.000001 0.000001 -0.545751 3.518368 26.658553 0.001671 0.001046 22.220952 -0.004757 -0.007314 22.067446 -0.000000 -0.000000 -0.000001 -1.635950 4.765015 30.691762 0.000632 -0.006222 24.927289 -0.002143 -0.008455 24.744587 0.000000 0.000000 0.000001 -3.098827 6.210947 34.874085 0.003103 -0.015079 27.707861 0.011222 -0.014557 27.502525 -0.000002 -0.000000 0.000000 -21.960226 3.040482 9.058668 61.773788 3.349987 0.013765 7.263875 -0.071368 -4.279244 -33.572880 -2.087999 0.067620 0.000000 0.000000 -0.000000 -16.040377 -7.159677 11.585171 33.949192 4.527960 0.207163 -11.323799 2.320647 -11.285593 0.945376 0.000960 0.680833 0.000000 0.000000 -0.000000 
1.120067 89.456627 172.553772 -2.378215 0.204253 -4.290674 14.268497 1.490660 4.737133 -4.344031 0.844257 -0.932464 -4.329081 0.772026 -1.030094 -0.100144 -1.689893 2.622537 -5.840642 -0.460692 -1.540040 -0.000000 0.000000 0.000000 2.370580 2.599472 -1.341547 -3.622074 -8.176817 -74.042194 12.004594 -10.521158 -9.011662 -0.379324 1.904924 11.578193 -4.983097 13.405892 11.311717 3.514975 8.487682 1.850358 3.521433 8.483438 1.853328 -0.000001 0.000002 0.000003 0.376717 -6.145597 -25.285050 -0.034555 0.056845 -22.183857 0.011095 0.023857 -22.069439 0.000000 0.000000 -0.000005 -0.682835 -5.541186 -29.068353 0.001728 -0.001863 -24.675233 0.003776 -0.001101 -24.545133 -0.000003 0.000001 0.000001 -1.915518 -6.193629 -34.198624 0.001376 0.010479 -28.105298 -0.016277 -0.004066 -27.930962 0.000000 0.000001 0.000000 -3.466252 -6.910119 -39.124604 -0.006379 0.006385 -31.381639 -0.001269 0.007989 -31.168305 0.000000 0.000001 -0.000000 3.460704 0.236088 4.393023 -1.477605 25.831524 70.378440 6.809854 19.846670 4.732052 -19.537592 0.958074 -12.165085 -0.780186 -20.554904 -5.075923 4.541226 -11.070971 -2.314807 -0.013935 0.020246 0.008426 -0.000000 -0.000000 0.000001 0.748659 1.485553 23.202832 -0.036667 -0.055008 19.908374 -0.000791 -0.021991 19.774578 -0.000003 -0.000000 0.000001 -0.268039 2.185036 25.525059 -0.002180 0.004224 21.457765 -0.008473 -0.004120 21.314915 0.000001 0.000002 0.000004 -1.284798 3.638247 29.547825 0.000803 -0.001118 24.164437 -0.009614 -0.006508 23.983677 -0.000002 0.000001 -0.000001 -2.714529 5.335791 33.797426 0.001282 -0.012023 26.995433 0.008556 -0.011852 26.784368 0.000001 -0.000000 0.000000 -26.237130 3.245495 7.676722 55.670550 1.915488 0.154278 -0.399875 0.104795 -7.392881 -15.717624 -1.497629 4.983173 -0.000001 0.000000 -0.000000 -10.803778 -6.271213 10.229818 30.988910 5.965426 0.491299 -14.131364 2.619821 -11.328705 0.574556 -0.007302 0.675867 0.000000 0.000000 0.000000 
